<svg width="265" height="32" viewBox="0 0 265 32" fill="none" xmlns="http://www.w3.org/2000/svg">
<path d="M34.2017 22.4129H28.5013V6.99594L19.1734 22.2834H15.0277L5.8293 6.99594V22.2834H0.128906V0H7.90217L17.2301 15.8056L26.558 0H34.3313V22.4129H34.2017Z" fill="black"/>
<path d="M75.6561 16.0647C75.6561 23.7084 70.6035 27.2064 64.7735 27.2064H39.7695V4.79346H64.7735C70.6035 4.79346 75.6561 8.42098 75.6561 16.0647ZM69.9557 16.0647C69.9557 10.6234 66.976 9.71652 62.7007 9.71652H45.4699V22.4129H62.5711C66.976 22.4129 69.9557 21.506 69.9557 16.0647Z" fill="black"/>
<path d="M34.2024 27.2064H0V31.9999H34.2024V27.2064Z" fill="black"/>
<path d="M119.967 19.1736C119.708 20.3396 119.19 21.5056 118.412 22.4124C117.635 23.4489 116.469 24.2262 114.914 24.874C113.489 25.5217 111.675 25.7808 109.603 25.7808C107.141 25.7808 105.068 25.3922 103.384 24.6149C101.7 23.8375 100.404 22.6715 99.4973 21.2464C98.5904 19.8213 98.2018 18.0076 98.2018 15.9347C98.2018 13.9914 98.5904 12.1776 99.4973 10.7525C100.404 9.32744 101.7 8.16145 103.384 7.38412C105.068 6.6068 107.141 6.21813 109.603 6.21813C111.675 6.21813 113.489 6.47724 114.914 7.12501C116.339 7.77279 117.505 8.55011 118.412 9.58655C119.19 10.623 119.837 11.6594 119.967 12.8254V12.955H122.169V12.8254C121.91 11.2708 121.262 9.7161 120.226 8.42056C119.19 7.12501 117.764 6.08858 115.951 5.31125C114.137 4.53392 112.064 4.14526 109.603 4.14526C106.752 4.14526 104.291 4.66348 102.348 5.57036C100.275 6.47724 98.72 7.90234 97.6836 9.7161C96.6471 11.5299 96.1289 13.6027 96.1289 15.9347C96.1289 18.2667 96.6471 20.3396 97.6836 22.1533C98.72 23.9671 100.275 25.2626 102.348 26.2991C104.42 27.2059 106.882 27.7242 109.603 27.7242C111.935 27.7242 114.137 27.3355 115.951 26.5582C117.764 25.7808 119.19 24.7444 120.226 23.4489C121.262 22.1533 121.91 20.7282 122.169 19.044V18.9145L119.967 19.1736Z" fill="black"/>
<path d="M136.422 4.79321L123.337 26.947L123.207 27.2061H125.669L129.037 21.6353H146.397L149.636 27.2061V27.3357H152.098L138.754 5.05232H136.422V4.79321ZM145.102 19.5624H130.073L137.588 6.86608L145.102 19.5624Z" fill="black"/>
<path d="M175.807 5.82949C174.512 5.18172 172.957 4.92261 171.144 4.92261H155.727V27.206H157.929V20.3396H171.273C173.087 20.3396 174.642 20.0805 175.937 19.4327C177.233 18.7849 178.269 17.8781 179.046 16.7121C179.824 15.5461 180.083 14.121 180.083 12.5663C180.083 11.0117 179.694 9.58657 179.046 8.42058C178.269 7.25459 177.103 6.34771 175.807 5.82949ZM157.929 6.86592H170.755C172.828 6.86592 174.512 7.38414 175.937 8.29102C177.233 9.19791 177.88 10.623 177.88 12.6959C177.88 14.7687 177.233 16.1938 175.937 17.1007C174.642 18.0076 172.957 18.5258 170.755 18.5258H157.929V6.86592Z" fill="black"/>
<path d="M186.82 4.79321H184.617V27.0766H186.82V4.79321Z" fill="black"/>
<path d="M216.355 4.79321H190.703V6.86608H202.363V27.2061H204.565V6.86608H216.355V4.79321Z" fill="black"/>
<path d="M225.164 4.79321L212.079 26.947L211.949 27.2061H214.411L217.779 21.6353H235.139L238.378 27.2061V27.3357H240.84L227.496 5.05232H225.164V4.79321ZM233.844 19.5624H218.816L226.33 6.86608L233.844 19.5624Z" fill="black"/>
<path d="M246.671 25.2628V4.79321H244.469V27.2061H264.679V25.2628H246.671Z" fill="black"/>
</svg>
